<?xml version="1.0" standalone="no"?>
<!DOCTYPE svg PUBLIC "-//W3C//DTD SVG 20010904//EN"
 "http://www.w3.org/TR/2001/REC-SVG-20010904/DTD/svg10.dtd">
<svg version="1.0" xmlns="http://www.w3.org/2000/svg"
 width="1080.000000pt" height="1080.000000pt" viewBox="0 0 1080.000000 1080.000000"
 preserveAspectRatio="xMidYMid meet">
<metadata>
Created by potrace 1.14, written by Peter Selinger 2001-2017
</metadata>
<g transform="translate(0.000000,1080.000000) scale(0.100000,-0.100000)"
fill="#000000" stroke="none">
<path d="M0 9180 c0 -891 2 -1620 5 -1620 3 0 28 46 56 103 28 56 66 122 83
147 18 25 38 60 45 77 8 18 35 65 62 104 27 39 49 75 49 80 0 5 4 9 8 9 5 0
19 18 31 41 51 89 279 327 441 459 30 25 57 48 58 53 2 4 40 25 85 47 44 22
88 46 96 54 27 23 243 104 321 121 164 33 423 32 745 -4 129 -14 254 -66 370
-151 30 -22 58 -40 62 -40 17 -1 131 -83 203 -147 185 -164 321 -424 377 -716
33 -176 26 -700 -10 -747 -21 -27 -139 -91 -156 -85 -35 11 -166 156 -225 248
-23 37 -96 257 -96 290 0 38 -10 57 -30 57 -23 0 -44 -97 -42 -202 2 -139 66
-267 209 -418 36 -38 63 -73 61 -78 -8 -20 -94 -132 -105 -136 -25 -10 -168
35 -242 75 -63 35 -160 107 -206 153 -21 20 -135 179 -135 187 0 5 -10 13 -22
20 -21 11 -21 11 -15 -53 7 -81 47 -174 110 -261 76 -104 211 -194 355 -236
39 -12 72 -27 72 -34 -1 -15 -73 -228 -83 -244 -11 -17 -60 -16 -159 3 -96 20
-206 71 -264 124 -22 20 -47 41 -55 46 -8 5 -25 24 -38 42 -54 77 -57 -7 -4
-105 49 -89 122 -161 204 -200 92 -43 156 -55 289 -51 l115 3 9 40 c38 177
166 418 278 521 57 54 130 104 149 104 25 0 24 -14 -7 -156 -14 -66 -29 -139
-33 -164 -10 -58 -41 -179 -52 -205 -18 -43 -70 -256 -64 -264 5 -9 71 16 235
89 84 37 374 151 515 202 184 67 708 238 747 244 34 6 40 2 105 -58 80 -75
162 -163 220 -233 131 -161 313 -468 378 -640 67 -174 85 -230 85 -257 0 -39
-13 -29 -57 41 -53 83 -149 178 -218 213 -54 28 -69 31 -155 32 -88 1 -98 -1
-140 -28 -25 -16 -58 -42 -74 -60 -39 -44 -90 -155 -117 -261 -21 -80 -24
-113 -24 -290 0 -184 2 -210 29 -325 26 -116 59 -200 78 -200 4 0 8 -7 8 -16
0 -11 5 -14 16 -10 12 5 15 -1 12 -27 -4 -39 19 -46 72 -23 34 15 34 15 8 16
-33 0 -35 9 -8 33 11 9 20 23 20 31 0 27 37 25 58 -3 11 -15 30 -27 46 -29 39
-3 66 -20 76 -48 8 -20 2 -39 -36 -107 -25 -45 -52 -89 -60 -98 -7 -8 -17 -30
-20 -48 -6 -29 -2 -38 37 -78 27 -28 72 -59 116 -79 60 -29 83 -34 143 -34
124 0 208 64 277 211 55 118 66 107 78 -76 9 -153 16 -210 25 -225 16 -26 25
46 50 380 15 204 17 286 10 410 -29 479 -109 809 -281 1152 -33 66 -83 157
-110 200 -27 44 -49 83 -49 87 0 4 -8 16 -19 27 -10 11 -24 31 -31 45 -31 59
-186 251 -264 328 -47 46 -86 87 -86 92 0 9 2 9 230 67 268 67 398 96 645 141
154 28 218 39 363 61 37 6 81 13 97 16 17 3 68 9 115 14 47 5 115 13 152 19
38 6 119 15 180 21 62 5 160 14 218 20 64 6 108 6 113 1 6 -6 -9 -53 -38 -123
-174 -413 -267 -808 -295 -1253 -9 -156 -1 -461 14 -506 3 -7 10 -62 15 -121
15 -150 53 -336 96 -463 12 -38 29 -91 35 -117 11 -42 16 -48 39 -48 21 0 32
10 54 49 32 58 34 85 7 129 -39 63 -19 156 40 185 26 14 30 14 30 1 0 -9 4
-13 9 -10 5 3 7 24 5 45 -3 33 0 41 16 46 11 4 22 16 25 28 2 12 9 47 16 77 6
30 14 154 16 275 4 196 3 231 -16 320 -30 145 -38 168 -74 222 -42 63 -84 76
-149 44 -24 -11 -47 -21 -51 -21 -13 0 -7 90 13 223 36 236 131 531 272 847
97 217 83 201 180 198 l81 -3 13 -43 c13 -47 43 -77 58 -61 6 5 24 9 42 9 l32
0 1 -60 c0 -59 14 -90 40 -90 6 0 11 -7 11 -16 0 -13 -8 -15 -37 -12 -62 8
-83 -5 -82 -49 1 -21 4 -49 8 -63 7 -28 62 -60 102 -60 36 0 64 -68 79 -190 6
-52 16 -122 22 -155 15 -83 16 -108 23 -380 7 -266 -10 -532 -55 -865 -6 -41
-10 -90 -10 -109 0 -18 -7 -61 -16 -95 -9 -33 -24 -106 -35 -161 -10 -55 -28
-134 -40 -175 -11 -41 -25 -93 -29 -115 -11 -47 -79 -225 -109 -281 -12 -21
-21 -49 -21 -61 0 -13 -4 -23 -10 -23 -5 0 -10 -8 -10 -18 0 -20 66 -62 98
-62 11 0 25 -7 32 -15 7 -8 18 -15 25 -15 7 0 19 -7 26 -16 8 -9 32 -25 54
-35 22 -10 52 -29 67 -43 31 -28 108 -143 108 -161 0 -7 9 -20 19 -29 39 -35
36 -221 -4 -298 -10 -18 -27 -51 -38 -73 -11 -22 -39 -73 -63 -112 -24 -40
-44 -76 -44 -81 0 -11 -133 -152 -144 -152 -4 0 -24 -14 -43 -30 -18 -17 -38
-30 -43 -30 -5 0 -36 -16 -69 -35 -32 -19 -64 -35 -71 -35 -6 0 -31 -9 -56
-21 -32 -14 -76 -22 -150 -26 -99 -6 -106 -5 -125 16 -11 12 -38 33 -59 46
-21 13 -41 29 -45 35 -11 18 -46 11 -94 -18 -25 -15 -59 -34 -76 -40 -16 -7
-40 -28 -52 -46 -16 -25 -38 -40 -80 -56 -32 -12 -65 -27 -73 -34 -23 -20
-178 -96 -195 -96 -8 0 -15 -4 -15 -10 0 -5 -8 -10 -18 -10 -10 0 -22 -4 -28
-10 -5 -5 -27 -14 -49 -19 -31 -8 -11 -9 85 -6 166 7 254 17 510 60 47 7 135
19 195 25 61 5 157 17 215 26 58 9 150 19 205 24 55 4 118 13 140 19 46 13
216 36 396 55 176 19 256 61 344 181 16 22 38 47 48 55 11 8 33 27 51 41 128
107 309 118 528 33 l47 -18 113 56 c165 82 229 98 385 98 135 0 262 -17 351
-46 52 -17 52 -17 77 6 37 35 48 90 40 200 -9 133 -32 308 -50 377 -27 108
-55 310 -56 414 -2 112 14 372 32 534 13 112 55 240 95 289 127 154 233 204
367 176 73 -15 127 -55 166 -125 29 -52 33 -69 42 -183 6 -70 14 -131 18 -137
4 -5 20 -50 35 -100 44 -145 55 -174 116 -300 32 -66 93 -193 136 -282 43 -89
83 -164 90 -167 24 -9 52 29 99 134 40 89 113 240 146 302 5 11 9 1327 9 3313
l0 3295 -5400 0 -5400 0 0 -1620z m7639 848 c63 -26 97 -62 117 -120 17 -52
12 -111 -21 -232 -24 -91 -138 -349 -193 -438 -39 -61 -81 -137 -112 -203 -19
-38 -38 -74 -42 -80 -17 -22 -75 -112 -90 -140 -46 -88 -58 -108 -88 -141 -17
-20 -56 -75 -87 -123 -30 -47 -66 -102 -78 -121 -12 -19 -50 -78 -83 -130 -34
-52 -65 -99 -69 -105 -40 -49 -105 -140 -133 -185 -19 -30 -45 -66 -58 -80
-21 -22 -42 -50 -87 -118 -58 -89 -136 -195 -187 -255 -32 -38 -40 -33 -62 44
-8 30 -28 73 -42 95 -15 21 -47 82 -71 134 -150 320 -319 599 -452 746 -29 32
-59 73 -67 91 -14 32 -80 103 -96 103 -21 0 -6 51 20 67 15 9 62 47 104 83 42
36 118 99 169 140 50 41 100 82 110 90 10 8 41 33 69 55 29 22 69 56 89 75
118 109 458 368 578 440 59 36 142 87 183 115 86 57 253 145 276 145 8 0 29 7
47 17 96 50 275 66 356 31z m-4174 -568 c47 -10 151 -31 180 -36 11 -2 29 -11
40 -21 28 -25 84 -43 136 -43 33 0 71 -14 159 -57 63 -31 117 -59 120 -62 11
-13 109 -61 123 -61 8 0 17 -3 19 -7 2 -5 19 -15 38 -25 166 -78 239 -117 265
-140 46 -42 86 -72 130 -98 22 -13 46 -30 53 -37 7 -7 19 -13 25 -13 7 0 50
-36 97 -80 47 -44 90 -80 95 -80 11 0 37 -24 146 -137 42 -43 82 -89 89 -103
7 -14 19 -29 26 -33 8 -4 28 -29 46 -55 18 -26 43 -58 55 -72 13 -14 26 -33
29 -44 3 -10 15 -29 27 -42 24 -27 66 -98 97 -161 11 -23 25 -45 30 -48 6 -3
10 -17 10 -31 0 -14 6 -27 14 -30 8 -3 27 -31 42 -62 15 -31 30 -59 34 -62 3
-3 16 -25 27 -50 11 -25 33 -71 47 -102 14 -31 26 -63 26 -70 0 -7 9 -29 19
-49 11 -20 23 -54 27 -75 3 -22 12 -45 18 -53 12 -15 34 -95 41 -146 18 -139
19 -135 -1 -136 -39 -4 -50 -5 -103 -13 -29 -4 -70 -9 -90 -11 -20 -1 -70 -10
-111 -20 -98 -22 -154 -34 -215 -45 -27 -5 -70 -13 -95 -19 -25 -6 -72 -15
-105 -21 -33 -5 -94 -19 -135 -29 -41 -11 -92 -22 -113 -26 -38 -6 -38 -6 -24
17 22 34 28 98 36 358 4 173 3 253 -7 305 -7 39 -13 86 -14 105 0 19 -4 42 -9
51 -4 9 -10 27 -13 40 -9 43 -34 133 -55 193 -12 33 -21 67 -21 76 0 9 -11 37
-23 61 -13 24 -27 56 -30 71 -4 15 -30 64 -57 110 -28 46 -50 87 -50 91 0 8
-58 98 -70 107 -12 10 -90 140 -90 150 0 5 -4 10 -10 10 -5 0 -10 7 -10 15 0
14 -46 66 -52 59 -4 -4 -208 205 -248 254 -14 17 -34 33 -45 36 -11 3 -38 21
-60 41 -22 19 -45 35 -51 35 -5 0 -23 14 -39 30 -16 17 -34 30 -41 30 -7 0
-14 4 -16 8 -1 5 -28 20 -59 35 -31 14 -62 33 -69 42 -7 8 -19 15 -26 15 -8 0
-14 5 -14 10 0 6 -21 20 -47 31 -27 12 -60 28 -75 35 -14 8 -36 14 -47 14 -12
0 -24 7 -27 15 -4 8 -13 15 -22 15 -8 0 -23 7 -33 16 -10 9 -36 17 -59 19 -22
1 -44 5 -47 9 -9 9 116 6 162 -4z m3196 -3810 c10 -6 25 -23 33 -39 14 -27 36
-156 30 -176 -1 -5 -5 -32 -8 -59 -7 -60 -71 -190 -103 -207 -18 -10 -28 -10
-47 0 -37 20 -49 57 -54 163 -6 133 16 230 64 287 37 43 52 48 85 31z m-1893
-77 c32 -20 80 -97 97 -157 18 -58 20 -221 5 -315 -12 -73 -56 -174 -92 -212
-13 -14 -48 -34 -77 -44 l-52 -17 -39 26 c-48 31 -81 82 -112 168 -29 82 -31
248 -4 353 21 82 68 169 102 192 52 34 124 37 172 6z m1946 -610 c-1 -47 -17
-73 -45 -73 -26 0 -42 35 -33 73 8 38 20 48 54 45 22 -3 25 -7 24 -45z m-1694
-125 c35 -38 18 -143 -28 -167 -53 -28 -92 -4 -107 66 -7 33 23 106 47 116 30
12 68 6 88 -15z"/>
<path d="M1398 6293 c-23 -21 -60 -57 -82 -81 -22 -24 -51 -50 -65 -57 -15 -8
-43 -29 -63 -47 -21 -18 -61 -51 -89 -73 -28 -22 -68 -57 -89 -77 -21 -21 -43
-38 -49 -38 -14 0 -96 -45 -127 -69 -28 -22 -273 -141 -291 -141 -4 0 -35 -11
-68 -25 -33 -13 -71 -25 -85 -25 -14 0 -54 -9 -90 -21 -64 -20 -145 -35 -247
-46 l-53 -5 0 -1688 0 -1688 118 -36 c64 -20 140 -45 167 -56 28 -11 62 -20
76 -20 14 0 34 -8 45 -18 23 -21 94 -55 149 -72 22 -7 47 -18 55 -25 8 -8 39
-23 67 -34 94 -37 119 -58 130 -115 7 -33 7 -60 1 -78 -6 -18 -6 -39 1 -60 6
-18 15 -78 21 -133 28 -270 129 -647 241 -902 90 -204 176 -380 233 -477 30
-50 65 -112 77 -138 l23 -48 414 0 414 0 -26 33 c-15 17 -31 37 -36 44 -6 7
-10 16 -10 21 0 5 -13 27 -29 50 -27 37 -50 75 -118 202 -79 146 -93 174 -93
186 0 7 -3 14 -7 16 -12 5 -124 231 -123 249 0 8 -7 24 -15 35 -8 10 -15 25
-15 33 0 8 -7 22 -15 31 -8 9 -26 45 -39 81 -25 67 -102 253 -115 279 -5 8
-16 42 -25 75 -10 33 -26 75 -37 93 -10 18 -19 42 -19 52 0 10 -4 22 -10 25
-5 3 -10 14 -10 23 0 9 -6 29 -14 43 -7 14 -16 43 -20 65 -4 21 -13 48 -19 59
-6 11 -12 27 -13 35 -10 61 -17 86 -26 91 -6 4 -14 24 -18 45 -16 74 -58 239
-69 269 -15 43 -51 201 -51 225 0 12 -9 41 -20 65 -11 24 -25 79 -31 122 -5
43 -16 98 -24 123 -22 73 -27 157 -10 190 8 16 15 44 15 62 0 18 7 46 15 62 8
15 15 42 16 60 0 26 3 21 19 -29 11 -33 20 -78 20 -100 0 -22 7 -51 15 -65 8
-14 14 -41 15 -61 0 -20 11 -72 25 -115 14 -43 25 -92 25 -108 0 -16 4 -43 9
-60 26 -87 45 -142 52 -152 5 -6 17 -55 28 -110 10 -55 28 -120 39 -145 45
-103 65 -158 79 -214 14 -54 31 -99 54 -147 5 -10 9 -31 9 -47 0 -16 7 -34 15
-41 8 -7 15 -25 15 -41 0 -16 5 -29 10 -29 6 0 15 -12 20 -27 6 -16 15 -37 20
-48 5 -11 11 -31 13 -45 2 -14 11 -39 20 -57 9 -18 17 -41 17 -51 0 -11 9 -31
20 -45 11 -14 20 -34 20 -45 0 -11 7 -25 15 -32 8 -7 15 -18 15 -25 0 -7 7
-15 15 -19 15 -5 40 -53 36 -70 -1 -4 4 -15 10 -23 7 -8 21 -40 32 -71 10 -31
22 -59 25 -62 4 -3 18 -25 31 -50 13 -25 30 -52 36 -60 7 -8 16 -30 20 -47 3
-18 12 -36 18 -40 18 -12 67 -90 67 -107 0 -8 18 -42 40 -75 22 -33 40 -64 40
-69 0 -6 7 -12 15 -16 8 -3 15 -11 15 -18 0 -7 15 -29 33 -48 17 -19 44 -57
59 -85 14 -27 36 -54 47 -60 12 -5 21 -12 21 -16 0 -3 11 -19 25 -35 14 -16
25 -34 25 -40 0 -14 49 -80 57 -76 3 2 12 -9 18 -25 7 -15 26 -43 42 -60 l30
-33 280 0 280 0 33 72 c18 40 46 102 62 137 56 125 162 396 187 481 5 19 21
73 35 120 48 161 62 230 102 473 23 146 42 407 29 423 -5 7 -46 21 -90 29
-173 36 -422 135 -559 223 -47 31 -217 165 -261 208 -59 56 -222 239 -235 264
-7 14 -26 41 -42 60 -63 75 -108 140 -108 155 0 28 1 27 151 -95 20 -16 53
-37 73 -46 20 -10 36 -21 36 -26 0 -4 6 -8 14 -8 8 0 27 -10 43 -23 15 -13 66
-43 113 -67 47 -24 92 -47 100 -51 44 -22 191 -67 363 -110 44 -11 121 -18
225 -20 108 -2 108 -5 76 176 -14 83 -27 186 -29 230 -4 90 -9 122 -30 215 -8
36 -21 108 -29 160 -64 392 -91 535 -115 599 l-17 46 -279 6 -280 5 -125 38
c-114 35 -194 70 -275 121 -43 27 -62 43 -144 126 -79 80 -128 147 -181 247
-18 34 -36 62 -41 62 -4 0 -10 13 -14 30 -3 16 -22 66 -41 112 -44 104 -93
246 -109 318 -7 30 -25 102 -40 160 -32 125 -60 254 -81 370 -15 87 -21 125
-49 315 -8 61 -22 146 -30 190 -8 44 -24 143 -35 220 -50 358 -56 385 -81 385
-5 0 -28 -17 -51 -37z"/>
<path d="M2496 4945 c-59 -29 -121 -87 -146 -137 -18 -38 -18 -38 4 -38 12 0
38 11 58 25 20 13 56 31 80 40 52 18 208 20 255 3 24 -9 36 -9 44 -1 15 15
-30 105 -61 120 -14 7 -61 13 -105 13 -64 -1 -90 -5 -129 -25z"/>
<path d="M2725 4611 c-123 -31 -169 -61 -219 -137 -29 -45 -49 -154 -28 -154
6 0 35 25 64 56 99 106 173 137 322 139 57 1 101 6 103 11 2 6 -10 29 -27 52
-23 33 -37 42 -59 42 -16 0 -41 2 -57 5 -16 2 -60 -4 -99 -14z"/>
<path d="M3040 4372 c-106 -48 -175 -141 -186 -250 -5 -47 -2 -68 15 -107 26
-58 37 -52 52 30 16 86 87 178 172 221 26 13 47 30 47 37 0 18 -56 77 -72 76
-7 0 -20 -3 -28 -7z"/>
<path d="M5528 2384 c-20 -7 -85 -18 -145 -24 -59 -6 -122 -15 -138 -20 -49
-15 -341 -21 -450 -9 -88 9 -101 9 -111 -6 -9 -12 -9 -25 -2 -48 6 -18 23 -86
39 -152 16 -66 36 -140 44 -165 8 -25 19 -89 25 -142 5 -53 16 -116 25 -140 8
-24 15 -64 15 -89 0 -57 19 -87 48 -74 11 6 43 39 73 75 29 36 69 83 90 105
96 104 150 165 195 220 26 33 53 65 60 70 6 6 33 35 60 66 27 31 76 87 109
124 33 38 69 80 80 94 11 14 27 32 36 38 24 18 40 68 26 82 -14 14 -31 13 -79
-5z"/>
<path d="M7600 1890 c0 -5 7 -10 16 -10 8 0 12 5 9 10 -3 6 -10 10 -16 10 -5
0 -9 -4 -9 -10z"/>
<path d="M5717 1224 c-4 -4 -53 -11 -109 -15 -106 -9 -225 -21 -385 -39 -51
-5 -132 -14 -180 -19 -132 -14 -141 -17 -149 -57 -3 -19 -4 -41 0 -49 12 -33
7 -651 -7 -805 -13 -133 -13 -159 -1 -182 8 -15 14 -34 14 -43 0 -13 41 -15
350 -15 l350 0 0 33 c0 17 5 50 10 72 4 22 23 137 40 255 17 118 35 238 40
265 25 129 90 580 86 592 -5 13 -48 18 -59 7z"/>
</g>
</svg>
